<mxGraphModel dx="0" dy="0" grid="1" gridSize="10" guides="1" tooltips="1" connect="1" arrows="1" fold="1" page="0" pageScale="1" background="none" math="0" shadow="0">
  <root>
    <mxCell id="0" />
    <mxCell id="1" parent="0" />
    <mxCell id="node14" parent="1" vertex="1" value="&lt;p style=&quot;margin:0px;margin-top:4px;text-align:center;&quot;&gt;&lt;b&gt;Actividad&lt;/b&gt;&lt;/p&gt;&lt;hr size=&quot;1&quot;/&gt;&lt;p style=&quot;margin:0 0 0 4px;line-height:1.6;&quot;&gt;+ Actividad(LearningPath, String, String, String, String, int, boolean, Profesor): &lt;/p&gt;&lt;hr size=&quot;1&quot;/&gt;&lt;p style=&quot;margin:0 0 0 4px;line-height:1.6;&quot;&gt;# nivelDificultad: String&lt;br/&gt;# obligatorio: Boolean&lt;br/&gt;# respuesta: Map&amp;lt;Estudiante, String&amp;gt;&lt;br/&gt;# creador: Profesor&lt;br/&gt;# tipo: String&lt;br/&gt;# descripcion: String&lt;br/&gt;# objetivo: String&lt;br/&gt;# duracionEsperada: int&lt;br/&gt;# nombre: String&lt;br/&gt;# learningPath: LearningPath&lt;br/&gt;# fechaLimite: Date&lt;br/&gt;# reseñas: List&amp;lt;Reseña&amp;gt;&lt;br/&gt;# prerrequisitos: List&amp;lt;Actividad&amp;gt;&lt;/p&gt;&lt;hr size=&quot;1&quot;/&gt;&lt;p style=&quot;margin:0 0 0 4px;line-height:1.6;&quot;&gt;+ verficarReseña(Reseña): Boolean&lt;br/&gt;+ agregarReseña(Reseña): void&lt;br/&gt;+ realizar(ProgresoActividad): void&lt;br/&gt;+ establecerFechaLimite(Date): void&lt;br/&gt;+ RecordatorioActividad(ProgresoActividad): void&lt;br/&gt;+ clonarActividad(Profesor): Actividad&lt;br/&gt;+ agregarPrerrequisito(Actividad): void&lt;br/&gt;+ agregarActividadSeguimiento(Actividad): void&lt;br/&gt;+ editar(Profesor): void&lt;br/&gt;+ calcularPromedioRating(): float&lt;br/&gt;+ recomendarActividad(ProgresoActividad, Actividad): void&lt;/p&gt;&lt;hr size=&quot;1&quot;/&gt;&lt;p style=&quot;margin:0 0 0 4px;line-height:1.6;&quot;&gt; prerrequisitosNombres: List&amp;lt;String&amp;gt;&lt;br/&gt; descripcion: String&lt;br/&gt; fechaLimite: Date&lt;br/&gt; actividadSeguimiento: List&amp;lt;Actividad&amp;gt;&lt;br/&gt; objetivo: String&lt;br/&gt; nivelDificultad: String&lt;br/&gt; prerrequisitos: List&amp;lt;Actividad&amp;gt;&lt;br/&gt; tipo: String&lt;br/&gt; nombre: String&lt;br/&gt; duracionEsperada: int&lt;br/&gt; creador: Profesor&lt;br/&gt; reseñas: List&amp;lt;Reseña&amp;gt;&lt;br/&gt; learningPath: LearningPath&lt;br/&gt; obligatorio: boolean&lt;br/&gt; respuesta: Map&amp;lt;Estudiante, String&amp;gt;&lt;br/&gt; prerrequisitosNombre: List&amp;lt;String&amp;gt;&lt;/p&gt;" style="verticalAlign=top;align=left;overflow=fill;fontSize=14;fontFamily=Helvetica;html=1;rounded=0;shadow=0;comic=0;labelBackgroundColor=none;strokeWidth=1;">
      <mxGeometry x="-237" y="1715" width="399" height="1026" as="geometry" />
    </mxCell>
    <mxCell id="node16" parent="1" vertex="1" value="&lt;p style=&quot;margin:0px;margin-top:4px;text-align:center;&quot;&gt;&lt;b&gt;Encuesta&lt;/b&gt;&lt;/p&gt;&lt;hr size=&quot;1&quot;/&gt;&lt;p style=&quot;margin:0 0 0 4px;line-height:1.6;&quot;&gt;+ Encuesta(LearningPath, String, String, String, String, int, boolean, Profesor): &lt;/p&gt;&lt;hr size=&quot;1&quot;/&gt;&lt;p style=&quot;margin:0 0 0 4px;line-height:1.6;&quot;&gt;+ responder(Scanner, Estudiante): void&lt;br/&gt;+ realizar(ProgresoActividad): void&lt;br/&gt;+ editar(Profesor): void&lt;br/&gt;+ agregarPregunta(Scanner): void&lt;/p&gt;&lt;hr size=&quot;1&quot;/&gt;&lt;p style=&quot;margin:0 0 0 4px;line-height:1.6;&quot;&gt; preguntasAbiertas: List&amp;lt;String&amp;gt;&lt;/p&gt;" style="verticalAlign=top;align=left;overflow=fill;fontSize=14;fontFamily=Helvetica;html=1;rounded=0;shadow=0;comic=0;labelBackgroundColor=none;strokeWidth=1;">
      <mxGeometry x="-240" y="3156" width="405" height="185" as="geometry" />
    </mxCell>
    <mxCell id="node8" parent="1" vertex="1" value="&lt;p style=&quot;margin:0px;margin-top:4px;text-align:center;&quot;&gt;&lt;b&gt;Estudiante&lt;/b&gt;&lt;/p&gt;&lt;hr size=&quot;1&quot;/&gt;&lt;p style=&quot;margin:0 0 0 4px;line-height:1.6;&quot;&gt;+ Estudiante(String, String, String): &lt;/p&gt;&lt;hr size=&quot;1&quot;/&gt;&lt;p style=&quot;margin:0 0 0 4px;line-height:1.6;&quot;&gt;- learningPathsInscritos: List&amp;lt;LearningPath&amp;gt;&lt;br/&gt;- progresoPaths: Map&amp;lt;LearningPath, ProgresoPath&amp;gt;&lt;br/&gt;- realizadas: List&amp;lt;Actividad&amp;gt;&lt;br/&gt;- progresosAct: Map&amp;lt;Actividad, ProgresoActividad&amp;gt;&lt;/p&gt;&lt;hr size=&quot;1&quot;/&gt;&lt;p style=&quot;margin:0 0 0 4px;line-height:1.6;&quot;&gt;+ darReseñaActividad(Actividad, String, float): void&lt;br/&gt;+ inscripcion(LearningPath): void&lt;br/&gt;+ verLearningPaths(): void&lt;br/&gt;+ pedirRecomendacionActividad(LearningPath): void&lt;br/&gt;+ pedirProgresoPath(LearningPath): void&lt;br/&gt;+ inscribirseEnLearningPath(Scanner, Registro): LearningPath&lt;br/&gt;+ faltanPrerrequisitos(Actividad): boolean&lt;br/&gt;+ iniciarActividad(Actividad): void&lt;br/&gt;+ seleccionarActividad(Scanner, LearningPath): Actividad&lt;br/&gt;+ verificarPathExistente(LearningPath): Boolean&lt;br/&gt;+ realizarActividad(Actividad): void&lt;/p&gt;&lt;hr size=&quot;1&quot;/&gt;&lt;p style=&quot;margin:0 0 0 4px;line-height:1.6;&quot;&gt; learningPathsInscritos: List&amp;lt;LearningPath&amp;gt;&lt;br/&gt; progresoAct: Map&amp;lt;Actividad, ProgresoActividad&amp;gt;&lt;br/&gt; progresosAct: Map&amp;lt;Actividad, ProgresoActividad&amp;gt;&lt;br/&gt; progresoPaths: Map&amp;lt;LearningPath, ProgresoPath&amp;gt;&lt;br/&gt; LP: List&amp;lt;LearningPath&amp;gt;&lt;br/&gt; tipoUsuario: String&lt;br/&gt; realizadas: List&amp;lt;Actividad&amp;gt;&lt;/p&gt;" style="verticalAlign=top;align=left;overflow=fill;fontSize=14;fontFamily=Helvetica;html=1;rounded=0;shadow=0;comic=0;labelBackgroundColor=none;strokeWidth=1;">
      <mxGeometry x="494" y="-49" width="417" height="594" as="geometry" />
    </mxCell>
    <mxCell id="node7" parent="1" vertex="1" value="&lt;p style=&quot;margin:0px;margin-top:4px;text-align:center;&quot;&gt;&lt;b&gt;Examen&lt;/b&gt;&lt;/p&gt;&lt;hr size=&quot;1&quot;/&gt;&lt;p style=&quot;margin:0 0 0 4px;line-height:1.6;&quot;&gt;+ Examen(LearningPath, String, String, String, String, int, boolean, Profesor): &lt;/p&gt;&lt;hr size=&quot;1&quot;/&gt;&lt;p style=&quot;margin:0 0 0 4px;line-height:1.6;&quot;&gt;- preguntasAbiertas: List&amp;lt;String&amp;gt;&lt;/p&gt;&lt;hr size=&quot;1&quot;/&gt;&lt;p style=&quot;margin:0 0 0 4px;line-height:1.6;&quot;&gt;+ editar(Profesor): void&lt;br/&gt;+ realizar(ProgresoActividad): void&lt;br/&gt;+ agregarPregunta(Scanner): void&lt;br/&gt;+ realizarExamen(ProgresoActividad): void&lt;/p&gt;&lt;hr size=&quot;1&quot;/&gt;&lt;p style=&quot;margin:0 0 0 4px;line-height:1.6;&quot;&gt; preguntasAbiertas: List&amp;lt;String&amp;gt;&lt;/p&gt;" style="verticalAlign=top;align=left;overflow=fill;fontSize=14;fontFamily=Helvetica;html=1;rounded=0;shadow=0;comic=0;labelBackgroundColor=none;strokeWidth=1;">
      <mxGeometry x="198" y="3143" width="409" height="210" as="geometry" />
    </mxCell>
    <mxCell id="node17" parent="1" vertex="1" value="&lt;p style=&quot;margin:0px;margin-top:4px;text-align:center;&quot;&gt;&lt;b&gt;LearningPath&lt;/b&gt;&lt;/p&gt;&lt;hr size=&quot;1&quot;/&gt;&lt;p style=&quot;margin:0 0 0 4px;line-height:1.6;&quot;&gt;+ LearningPath(String, String, String, String, Profesor, int): &lt;/p&gt;&lt;hr size=&quot;1&quot;/&gt;&lt;p style=&quot;margin:0 0 0 4px;line-height:1.6;&quot;&gt;- creador: Profesor&lt;br/&gt;- fechaCreacion: Date&lt;br/&gt;- descripcion: String&lt;br/&gt;- fechaModificacion: Date&lt;br/&gt;- nivelDificultad: String&lt;br/&gt;- rating: double&lt;br/&gt;- version: int&lt;br/&gt;- titulo: String&lt;br/&gt;- objetivos: String&lt;br/&gt;- actividades: List&amp;lt;Actividad&amp;gt;&lt;br/&gt;- duracionEstimada: int&lt;/p&gt;&lt;hr size=&quot;1&quot;/&gt;&lt;p style=&quot;margin:0 0 0 4px;line-height:1.6;&quot;&gt;+ calcularPromedioRating(): double&lt;br/&gt;+ reducirTiempoLp(Actividad): void&lt;br/&gt;+ añadirTiempoLp(Actividad): void&lt;br/&gt;+ mostrarEstructura(): void&lt;/p&gt;&lt;hr size=&quot;1&quot;/&gt;&lt;p style=&quot;margin:0 0 0 4px;line-height:1.6;&quot;&gt; descripcion: String&lt;br/&gt; nivelDificultad: String&lt;br/&gt; actividades: List&amp;lt;Actividad&amp;gt;&lt;br/&gt; duracionEstimada: int&lt;br/&gt; fechaModificacion: Date&lt;br/&gt; creador: Profesor&lt;br/&gt; rating: double&lt;br/&gt; titulo: String&lt;br/&gt; objetivos: String&lt;br/&gt; version: int&lt;br/&gt; fechaCreacion: Date&lt;/p&gt;" style="verticalAlign=top;align=left;overflow=fill;fontSize=14;fontFamily=Helvetica;html=1;rounded=0;shadow=0;comic=0;labelBackgroundColor=none;strokeWidth=1;">
      <mxGeometry x="-19" y="983" width="402" height="690" as="geometry" />
    </mxCell>
    <mxCell id="node12" parent="1" vertex="1" value="&lt;p style=&quot;margin:0px;margin-top:4px;text-align:center;&quot;&gt;&lt;b&gt;Main&lt;/b&gt;&lt;/p&gt;&lt;hr size=&quot;1&quot;/&gt;&lt;p style=&quot;margin:0 0 0 4px;line-height:1.6;&quot;&gt;+ Main(): &lt;/p&gt;&lt;hr size=&quot;1&quot;/&gt;&lt;p style=&quot;margin:0 0 0 4px;line-height:1.6;&quot;&gt;+ main(String[]): void&lt;br/&gt;+ correrAplicacion(Scanner, Registro): void&lt;br/&gt;- loginUsuario(Scanner, Registro): void&lt;br/&gt;- menuProfesor(Profesor, Scanner): void&lt;br/&gt;- registrarUsuario(Scanner, Registro, String): void&lt;br/&gt;- menuEstudiante(Estudiante, Scanner): void&lt;/p&gt;" style="verticalAlign=top;align=left;overflow=fill;fontSize=14;fontFamily=Helvetica;html=1;rounded=0;shadow=0;comic=0;labelBackgroundColor=none;strokeWidth=1;">
      <mxGeometry x="-230" y="644" width="345" height="208" as="geometry" />
    </mxCell>
    <mxCell id="node15" parent="1" vertex="1" value="&lt;p style=&quot;margin:0px;margin-top:4px;text-align:center;&quot;&gt;&lt;b&gt;ManejoPersistencia&lt;/b&gt;&lt;/p&gt;&lt;hr size=&quot;1&quot;/&gt;&lt;p style=&quot;margin:0 0 0 4px;line-height:1.6;&quot;&gt;+ ManejoPersistencia(): &lt;/p&gt;&lt;hr size=&quot;1&quot;/&gt;&lt;p style=&quot;margin:0 0 0 4px;line-height:1.6;&quot;&gt;- mapaPaths: Map&amp;lt;String, LearningPath&amp;gt;&lt;/p&gt;&lt;hr size=&quot;1&quot;/&gt;&lt;p style=&quot;margin:0 0 0 4px;line-height:1.6;&quot;&gt;+ formatoActividad(Actividad): ArrayList&amp;lt;String&amp;gt;&lt;br/&gt;+ cargarEstudiantes(): Map&amp;lt;String, Estudiante&amp;gt;&lt;br/&gt;+ buscarActividad(String): Actividad&lt;br/&gt;+ modificarActividad(int, String, String): Map&amp;lt;String, Actividad&amp;gt;&lt;br/&gt;+ cargarProgresoActividades(): Map&amp;lt;String, ProgresoActividad&amp;gt;&lt;br/&gt;+ crearPathData(LearningPath): Map&amp;lt;String, LearningPath&amp;gt;&lt;br/&gt;+ formatoPath(LearningPath): ArrayList&amp;lt;String&amp;gt;&lt;br/&gt;+ formatoProgresoPath(ProgresoPath): ArrayList&amp;lt;String&amp;gt;&lt;br/&gt;+ guardarActividades(): Map&amp;lt;String, Actividad&amp;gt;&lt;br/&gt;+ guardarPaths(): Map&amp;lt;String, LearningPath&amp;gt;&lt;br/&gt;+ crearEstudianteData(String, String, String): Map&amp;lt;String, Estudiante&amp;gt;&lt;br/&gt;+ guardarProfesor(): Map&amp;lt;String, Profesor&amp;gt;&lt;br/&gt;+ buscarProfe(String): Profesor&lt;br/&gt;+ formatoProfesor(Profesor): ArrayList&amp;lt;String&amp;gt;&lt;br/&gt;+ buscarEstu(String): Estudiante&lt;br/&gt;+ crearProgresoPathData(ProgresoPath): void&lt;br/&gt;+ modificarPath(int, String, String): Map&amp;lt;String, LearningPath&amp;gt;&lt;br/&gt;+ crearActividadData(Actividad): Map&amp;lt;String, Actividad&amp;gt;&lt;br/&gt;+ cargarProgresoPaths(): Map&amp;lt;String, ProgresoPath&amp;gt;&lt;br/&gt;+ modificarEstudiante(String, String): Map&amp;lt;String, Estudiante&amp;gt;&lt;br/&gt;+ crearProfesorData(String, String, String): Map&amp;lt;String, Profesor&amp;gt;&lt;br/&gt;+ guardarProgresoActividad(): Map&amp;lt;String, ProgresoActividad&amp;gt;&lt;br/&gt;+ formatoProgresoActividad(ProgresoActividad): ArrayList&amp;lt;String&amp;gt;&lt;br/&gt;+ crearMapaActividades(Profesor): Map&amp;lt;String, Actividad&amp;gt;&lt;br/&gt;+ buscarPath(String): LearningPath&lt;br/&gt;+ modificarProfe(String, String): Map&amp;lt;String, Profesor&amp;gt;&lt;br/&gt;+ formatoEstudiante(Estudiante): ArrayList&amp;lt;String&amp;gt;&lt;br/&gt;+ cargarLearningPaths(): Map&amp;lt;String, LearningPath&amp;gt;&lt;br/&gt;+ guardarEstudiante(): Map&amp;lt;String, Estudiante&amp;gt;&lt;br/&gt;- cargarActividad(String): Actividad&lt;br/&gt;+ cargarProfesores(): Map&amp;lt;String, Profesor&amp;gt;&lt;br/&gt;+ guardarProgresoPath(): Map&amp;lt;String, ProgresoPath&amp;gt;&lt;/p&gt;&lt;hr size=&quot;1&quot;/&gt;&lt;p style=&quot;margin:0 0 0 4px;line-height:1.6;&quot;&gt; mapaPaths: Map&amp;lt;String, LearningPath&amp;gt;&lt;/p&gt;" style="verticalAlign=top;align=left;overflow=fill;fontSize=14;fontFamily=Helvetica;html=1;rounded=0;shadow=0;comic=0;labelBackgroundColor=none;strokeWidth=1;">
      <mxGeometry x="206" y="1787" width="473" height="882" as="geometry" />
    </mxCell>
    <mxCell id="node1" parent="1" vertex="1" value="&lt;p style=&quot;margin:0px;margin-top:4px;text-align:center;&quot;&gt;&lt;b&gt;PersistenciaUsuarios&lt;/b&gt;&lt;/p&gt;&lt;hr size=&quot;1&quot;/&gt;&lt;p style=&quot;margin:0 0 0 4px;line-height:1.6;&quot;&gt;+ PersistenciaUsuarios(): &lt;/p&gt;&lt;hr size=&quot;1&quot;/&gt;&lt;p style=&quot;margin:0 0 0 4px;line-height:1.6;&quot;&gt;- cargarUsuarios(List&amp;lt;Usuario&amp;gt;, JSONArray): void&lt;br/&gt;+ cargarUsuarios(String): List&amp;lt;Usuario&amp;gt;&lt;br/&gt;+ salvarUsuarios(String, List&amp;lt;Usuario&amp;gt;): void&lt;/p&gt;" style="verticalAlign=top;align=left;overflow=fill;fontSize=14;fontFamily=Helvetica;html=1;rounded=0;shadow=0;comic=0;labelBackgroundColor=none;strokeWidth=1;">
      <mxGeometry x="229" y="-300" width="346" height="147" as="geometry" />
    </mxCell>
    <mxCell id="node5" parent="1" vertex="1" value="&lt;p style=&quot;margin:0px;margin-top:4px;text-align:center;&quot;&gt;&lt;b&gt;PreguntaMultiple&lt;/b&gt;&lt;/p&gt;&lt;hr size=&quot;1&quot;/&gt;&lt;p style=&quot;margin:0 0 0 4px;line-height:1.6;&quot;&gt;+ PreguntaMultiple(String, List&amp;lt;String&amp;gt;, int, List&amp;lt;String&amp;gt;): &lt;/p&gt;&lt;hr size=&quot;1&quot;/&gt;&lt;p style=&quot;margin:0 0 0 4px;line-height:1.6;&quot;&gt;- textoPregunta: String&lt;br/&gt;- explicaciones: List&amp;lt;String&amp;gt;&lt;br/&gt;- opciones: List&amp;lt;String&amp;gt;&lt;/p&gt;&lt;hr size=&quot;1&quot;/&gt;&lt;p style=&quot;margin:0 0 0 4px;line-height:1.6;&quot;&gt;+ mostrarYResolver(Scanner): boolean&lt;/p&gt;&lt;hr size=&quot;1&quot;/&gt;&lt;p style=&quot;margin:0 0 0 4px;line-height:1.6;&quot;&gt; textoPregunta: String&lt;br/&gt; explicaciones: List&amp;lt;String&amp;gt;&lt;br/&gt; opciones: List&amp;lt;String&amp;gt;&lt;/p&gt;" style="verticalAlign=top;align=left;overflow=fill;fontSize=14;fontFamily=Helvetica;html=1;rounded=0;shadow=0;comic=0;labelBackgroundColor=none;strokeWidth=1;">
      <mxGeometry x="262" y="631" width="400" height="234" as="geometry" />
    </mxCell>
    <mxCell id="node3" parent="1" vertex="1" value="&lt;p style=&quot;margin:0px;margin-top:4px;text-align:center;&quot;&gt;&lt;b&gt;Profesor&lt;/b&gt;&lt;/p&gt;&lt;hr size=&quot;1&quot;/&gt;&lt;p style=&quot;margin:0 0 0 4px;line-height:1.6;&quot;&gt;+ Profesor(String, String, String): &lt;/p&gt;&lt;hr size=&quot;1&quot;/&gt;&lt;p style=&quot;margin:0 0 0 4px;line-height:1.6;&quot;&gt;- learningPathsCreados: List&amp;lt;LearningPath&amp;gt;&lt;/p&gt;&lt;hr size=&quot;1&quot;/&gt;&lt;p style=&quot;margin:0 0 0 4px;line-height:1.6;&quot;&gt;- crearTarea(Scanner): Tarea&lt;br/&gt;+ crearActividad(Scanner): Actividad&lt;br/&gt;+ editarActividad(Actividad): void&lt;br/&gt;+ añadirActividadALearningPath(Actividad): void&lt;br/&gt;- crearExamen(Scanner): Examen?&lt;br/&gt;+ darReseñaActividad(Actividad, String, float): void&lt;br/&gt;+ verLearningPaths(): void&lt;br/&gt;+ eliminarActividadDeLearningPath(Actividad): void&lt;br/&gt;- crearEncuesta(Scanner): Encuesta&lt;br/&gt;- crearQuiz(Scanner): Quiz&lt;br/&gt;+ agregarActividadSeguimiento(Actividad, Actividad): void&lt;br/&gt;+ crearLearningPath(String, String, String, String, int, Registro): LearningPath&lt;br/&gt;- crearRecurso(Scanner): RecursoEducativo&lt;br/&gt;+ clonarActividad(Actividad): Actividad&lt;br/&gt;+ calificarActividad(Actividad, Scanner): void&lt;br/&gt;+ verificarActividadExistente(String, Actividad): Boolean&lt;br/&gt;+ agregarPrerrequisitoActividad(Actividad, Actividad): void&lt;/p&gt;&lt;hr size=&quot;1&quot;/&gt;&lt;p style=&quot;margin:0 0 0 4px;line-height:1.6;&quot;&gt; learningPathsCreados: List&amp;lt;LearningPath&amp;gt;&lt;br/&gt; tipoUsuario: String&lt;/p&gt;" style="verticalAlign=top;align=left;overflow=fill;fontSize=14;fontFamily=Helvetica;html=1;rounded=0;shadow=0;comic=0;labelBackgroundColor=none;strokeWidth=1;">
      <mxGeometry x="-39" y="-25" width="482" height="546" as="geometry" />
    </mxCell>
    <mxCell id="node2" parent="1" vertex="1" value="&lt;p style=&quot;margin:0px;margin-top:4px;text-align:center;&quot;&gt;&lt;b&gt;ProgresoActividad&lt;/b&gt;&lt;/p&gt;&lt;hr size=&quot;1&quot;/&gt;&lt;p style=&quot;margin:0 0 0 4px;line-height:1.6;&quot;&gt;+ ProgresoActividad(Actividad, Estudiante): &lt;/p&gt;&lt;hr size=&quot;1&quot;/&gt;&lt;p style=&quot;margin:0 0 0 4px;line-height:1.6;&quot;&gt;- resultado: String&lt;br/&gt;- actividad: Actividad&lt;br/&gt;- fechaInicio: Date&lt;br/&gt;- completada: boolean&lt;br/&gt;- estudiante: Estudiante&lt;br/&gt;- fechaFin: Date&lt;br/&gt;- tiempoDedicado: long&lt;/p&gt;&lt;hr size=&quot;1&quot;/&gt;&lt;p style=&quot;margin:0 0 0 4px;line-height:1.6;&quot;&gt;+ marcarRealizada(String, Date): void&lt;br/&gt;+ calcularTiempoDedicado(Date, Date): long&lt;br/&gt;+ completarActividad(String): void&lt;/p&gt;&lt;hr size=&quot;1&quot;/&gt;&lt;p style=&quot;margin:0 0 0 4px;line-height:1.6;&quot;&gt; tiempoDedicado: long&lt;br/&gt; fechaFin: Date&lt;br/&gt; completada: boolean&lt;br/&gt; fechaInicio: Date&lt;br/&gt; completado: boolean&lt;br/&gt; resultado: String&lt;br/&gt; actividad: Actividad&lt;br/&gt; estudiante: Estudiante&lt;/p&gt;" style="verticalAlign=top;align=left;overflow=fill;fontSize=14;fontFamily=Helvetica;html=1;rounded=0;shadow=0;comic=0;labelBackgroundColor=none;strokeWidth=1;">
      <mxGeometry x="748" y="1979" width="308" height="498" as="geometry" />
    </mxCell>
    <mxCell id="node9" parent="1" vertex="1" value="&lt;p style=&quot;margin:0px;margin-top:4px;text-align:center;&quot;&gt;&lt;b&gt;ProgresoPath&lt;/b&gt;&lt;/p&gt;&lt;hr size=&quot;1&quot;/&gt;&lt;p style=&quot;margin:0 0 0 4px;line-height:1.6;&quot;&gt;+ ProgresoPath(LearningPath, Date, Estudiante): &lt;/p&gt;&lt;hr size=&quot;1&quot;/&gt;&lt;p style=&quot;margin:0 0 0 4px;line-height:1.6;&quot;&gt;- lp: LearningPath&lt;br/&gt;- estudiante: Estudiante&lt;br/&gt;- porcentajePath: float&lt;br/&gt;- fechaInicioPath: Date&lt;br/&gt;- fechaFinPath: Date&lt;br/&gt;- tasaExito: float&lt;br/&gt;- completado: boolean&lt;br/&gt;- actividadesRealizadas: List&amp;lt;Actividad&amp;gt;&lt;br/&gt;- tasaFracaso: float&lt;/p&gt;&lt;hr size=&quot;1&quot;/&gt;&lt;p style=&quot;margin:0 0 0 4px;line-height:1.6;&quot;&gt;+ calcularProgreso(): void&lt;br/&gt;+ agregarActividadRealizada(Actividad): void&lt;br/&gt;+ marcarCompletado(): void&lt;br/&gt;+ actualizarTasas(): void&lt;/p&gt;&lt;hr size=&quot;1&quot;/&gt;&lt;p style=&quot;margin:0 0 0 4px;line-height:1.6;&quot;&gt; fechaInicioPath: Date&lt;br/&gt; fechaFinPath: Date&lt;br/&gt; lp: LearningPath&lt;br/&gt; porcentajePath: float&lt;br/&gt; completado: boolean&lt;br/&gt; tasaExito: float&lt;br/&gt; tasaFracaso: float&lt;br/&gt; actividadesRealizadas: List&amp;lt;Actividad&amp;gt;&lt;br/&gt; estudiante: Estudiante&lt;/p&gt;" style="verticalAlign=top;align=left;overflow=fill;fontSize=14;fontFamily=Helvetica;html=1;rounded=0;shadow=0;comic=0;labelBackgroundColor=none;strokeWidth=1;">
      <mxGeometry x="532" y="1031" width="341" height="594" as="geometry" />
    </mxCell>
    <mxCell id="node4" parent="1" vertex="1" value="&lt;p style=&quot;margin:0px;margin-top:4px;text-align:center;&quot;&gt;&lt;b&gt;Quiz&lt;/b&gt;&lt;/p&gt;&lt;hr size=&quot;1&quot;/&gt;&lt;p style=&quot;margin:0 0 0 4px;line-height:1.6;&quot;&gt;+ Quiz(LearningPath, String, String, String, String, int, boolean, double, Profesor): &lt;/p&gt;&lt;hr size=&quot;1&quot;/&gt;&lt;p style=&quot;margin:0 0 0 4px;line-height:1.6;&quot;&gt;- notaObtenida: double&lt;br/&gt;- notaAprobacion: double&lt;/p&gt;&lt;hr size=&quot;1&quot;/&gt;&lt;p style=&quot;margin:0 0 0 4px;line-height:1.6;&quot;&gt;+ editar(Profesor): void&lt;br/&gt;+ realizar(ProgresoActividad): void&lt;br/&gt;+ realizarQuiz(Scanner): String&lt;br/&gt;+ agregarPregunta(Scanner): void&lt;/p&gt;&lt;hr size=&quot;1&quot;/&gt;&lt;p style=&quot;margin:0 0 0 4px;line-height:1.6;&quot;&gt; notaAprobacion: double&lt;br/&gt; notaObtenida: double&lt;/p&gt;" style="verticalAlign=top;align=left;overflow=fill;fontSize=14;fontFamily=Helvetica;html=1;rounded=0;shadow=0;comic=0;labelBackgroundColor=none;strokeWidth=1;">
      <mxGeometry x="-18" y="2839" width="401" height="258" as="geometry" />
    </mxCell>
    <mxCell id="node13" parent="1" vertex="1" value="&lt;p style=&quot;margin:0px;margin-top:4px;text-align:center;&quot;&gt;&lt;b&gt;RecursoEducativo&lt;/b&gt;&lt;/p&gt;&lt;hr size=&quot;1&quot;/&gt;&lt;p style=&quot;margin:0 0 0 4px;line-height:1.6;&quot;&gt;+ RecursoEducativo(LearningPath, String, String, String, String, int, boolean, String, String, Profesor): &lt;/p&gt;&lt;hr size=&quot;1&quot;/&gt;&lt;p style=&quot;margin:0 0 0 4px;line-height:1.6;&quot;&gt;- tipoRecurso: String&lt;br/&gt;- enlaceRecurso: String&lt;/p&gt;&lt;hr size=&quot;1&quot;/&gt;&lt;p style=&quot;margin:0 0 0 4px;line-height:1.6;&quot;&gt;+ realizar(ProgresoActividad): void&lt;br/&gt;+ editar(Profesor): void&lt;br/&gt;+ cambios(Scanner): void&lt;/p&gt;&lt;hr size=&quot;1&quot;/&gt;&lt;p style=&quot;margin:0 0 0 4px;line-height:1.6;&quot;&gt; tipoRecurso: String&lt;br/&gt; enlaceRecurso: String&lt;/p&gt;" style="verticalAlign=top;align=left;overflow=fill;fontSize=14;fontFamily=Helvetica;html=1;rounded=0;shadow=0;comic=0;labelBackgroundColor=none;strokeWidth=1;">
      <mxGeometry x="645" y="3131" width="395" height="234" as="geometry" />
    </mxCell>
    <mxCell id="node0" parent="1" vertex="1" value="&lt;p style=&quot;margin:0px;margin-top:4px;text-align:center;&quot;&gt;&lt;b&gt;Registro&lt;/b&gt;&lt;/p&gt;&lt;hr size=&quot;1&quot;/&gt;&lt;p style=&quot;margin:0 0 0 4px;line-height:1.6;&quot;&gt;+ Registro(): &lt;/p&gt;&lt;hr size=&quot;1&quot;/&gt;&lt;p style=&quot;margin:0 0 0 4px;line-height:1.6;&quot;&gt;- paths: List&amp;lt;LearningPath&amp;gt;&lt;/p&gt;&lt;hr size=&quot;1&quot;/&gt;&lt;p style=&quot;margin:0 0 0 4px;line-height:1.6;&quot;&gt;+ agregarPaths(LearningPath): void&lt;br/&gt;+ salvarUsuarios(String): void&lt;br/&gt;+ verificarUsuarioExistente(Usuario): Boolean&lt;br/&gt;+ loginEstudiante(String, String): Estudiante&lt;br/&gt;+ registrarProfesor(Profesor): void&lt;br/&gt;+ verificarPathExistente(LearningPath): Boolean&lt;br/&gt;+ loginProfesor(String, String): Profesor&lt;br/&gt;+ cargarUsuarios(String): void&lt;br/&gt;+ registrarEstudiante(Estudiante): void&lt;br/&gt;+ verificarEmailExistente(String): Boolean&lt;/p&gt;&lt;hr size=&quot;1&quot;/&gt;&lt;p style=&quot;margin:0 0 0 4px;line-height:1.6;&quot;&gt; paths: List&amp;lt;LearningPath&amp;gt;&lt;/p&gt;" style="verticalAlign=top;align=left;overflow=fill;fontSize=14;fontFamily=Helvetica;html=1;rounded=0;shadow=0;comic=0;labelBackgroundColor=none;strokeWidth=1;">
      <mxGeometry x="957" y="571" width="331" height="354" as="geometry" />
    </mxCell>
    <mxCell id="node11" parent="1" vertex="1" value="&lt;p style=&quot;margin:0px;margin-top:4px;text-align:center;&quot;&gt;&lt;b&gt;Reseña&lt;/b&gt;&lt;/p&gt;&lt;hr size=&quot;1&quot;/&gt;&lt;p style=&quot;margin:0 0 0 4px;line-height:1.6;&quot;&gt;+ Reseña(String, float): &lt;/p&gt;&lt;hr size=&quot;1&quot;/&gt;&lt;p style=&quot;margin:0 0 0 4px;line-height:1.6;&quot;&gt;- texto: String&lt;br/&gt;- rating: float&lt;/p&gt;&lt;hr size=&quot;1&quot;/&gt;&lt;p style=&quot;margin:0 0 0 4px;line-height:1.6;&quot;&gt;+ hacerReseña(Actividad): void&lt;/p&gt;&lt;hr size=&quot;1&quot;/&gt;&lt;p style=&quot;margin:0 0 0 4px;line-height:1.6;&quot;&gt; rating: float&lt;br/&gt; texto: String&lt;/p&gt;" style="verticalAlign=top;align=left;overflow=fill;fontSize=14;fontFamily=Helvetica;html=1;rounded=0;shadow=0;comic=0;labelBackgroundColor=none;strokeWidth=1;">
      <mxGeometry x="-231" y="-325" width="226" height="186" as="geometry" />
    </mxCell>
    <mxCell id="node10" parent="1" vertex="1" value="&lt;p style=&quot;margin:0px;margin-top:4px;text-align:center;&quot;&gt;&lt;b&gt;Tarea&lt;/b&gt;&lt;/p&gt;&lt;hr size=&quot;1&quot;/&gt;&lt;p style=&quot;margin:0 0 0 4px;line-height:1.6;&quot;&gt;+ Tarea(LearningPath, String, String, String, String, int, boolean, Profesor): &lt;/p&gt;&lt;hr size=&quot;1&quot;/&gt;&lt;p style=&quot;margin:0 0 0 4px;line-height:1.6;&quot;&gt;- medioEntrega: String&lt;/p&gt;&lt;hr size=&quot;1&quot;/&gt;&lt;p style=&quot;margin:0 0 0 4px;line-height:1.6;&quot;&gt;+ cambios(Scanner): void&lt;br/&gt;+ editar(Profesor): void&lt;br/&gt;+ realizar(ProgresoActividad): void&lt;br/&gt;+ enviarTarea(Scanner, ProgresoActividad): void&lt;/p&gt;&lt;hr size=&quot;1&quot;/&gt;&lt;p style=&quot;margin:0 0 0 4px;line-height:1.6;&quot;&gt; medioEntrega: String&lt;/p&gt;" style="verticalAlign=top;align=left;overflow=fill;fontSize=14;fontFamily=Helvetica;html=1;rounded=0;shadow=0;comic=0;labelBackgroundColor=none;strokeWidth=1;">
      <mxGeometry x="421" y="2863" width="403" height="210" as="geometry" />
    </mxCell>
    <mxCell id="node6" parent="1" vertex="1" value="&lt;p style=&quot;margin:0px;margin-top:4px;text-align:center;&quot;&gt;&lt;b&gt;Usuario&lt;/b&gt;&lt;/p&gt;&lt;hr size=&quot;1&quot;/&gt;&lt;p style=&quot;margin:0 0 0 4px;line-height:1.6;&quot;&gt;+ Usuario(String, String, String): &lt;/p&gt;&lt;hr size=&quot;1&quot;/&gt;&lt;p style=&quot;margin:0 0 0 4px;line-height:1.6;&quot;&gt;# correo: String&lt;br/&gt;# nombre: String&lt;br/&gt;# contrasena: String&lt;/p&gt;&lt;hr size=&quot;1&quot;/&gt;&lt;p style=&quot;margin:0 0 0 4px;line-height:1.6;&quot;&gt;+ darReseñaActividad(Actividad, String, float): void&lt;br/&gt;+ verLearningPaths(): void&lt;/p&gt;&lt;hr size=&quot;1&quot;/&gt;&lt;p style=&quot;margin:0 0 0 4px;line-height:1.6;&quot;&gt; correo: String&lt;br/&gt; contrasena: String&lt;br/&gt; tipoUsuario: String&lt;br/&gt; nombre: String&lt;/p&gt;" style="verticalAlign=top;align=left;overflow=fill;fontSize=14;fontFamily=Helvetica;html=1;rounded=0;shadow=0;comic=0;labelBackgroundColor=none;strokeWidth=1;">
      <mxGeometry x="28" y="-633" width="349" height="282" as="geometry" />
    </mxCell>
    <mxCell id="edge4" edge="1" value="" parent="1" source="node16" target="node14" style="html=1;rounded=1;edgeStyle=orthogonalEdgeStyle;dashed=0;startArrow=none;endArrow=block;endSize=12;strokeColor=#000082;exitX=0.500;exitY=0.000;exitDx=0;exitDy=0;entryX=0.500;entryY=1.000;entryDx=0;entryDy=0;">
      <mxGeometry width="50" height="50" relative="1" as="geometry">
        <Array as="points" />
      </mxGeometry>
    </mxCell>
    <mxCell id="edge6" edge="1" value="" parent="1" source="node8" target="node6" style="html=1;rounded=1;edgeStyle=orthogonalEdgeStyle;dashed=0;startArrow=none;endArrow=block;endSize=12;strokeColor=#000082;exitX=0.500;exitY=0.000;exitDx=0;exitDy=0;entryX=0.500;entryY=1.000;entryDx=0;entryDy=0;">
      <mxGeometry width="50" height="50" relative="1" as="geometry">
        <Array as="points">
          <mxPoint x="702" y="-72" />
          <mxPoint x="202" y="-72" />
        </Array>
      </mxGeometry>
    </mxCell>
    <mxCell id="edge0" edge="1" value="" parent="1" source="node7" target="node14" style="html=1;rounded=1;edgeStyle=orthogonalEdgeStyle;dashed=0;startArrow=none;endArrow=block;endSize=12;strokeColor=#000082;exitX=0.500;exitY=0.000;exitDx=0;exitDy=0;entryX=0.500;entryY=1.000;entryDx=0;entryDy=0;">
      <mxGeometry width="50" height="50" relative="1" as="geometry">
        <Array as="points">
          <mxPoint x="402" y="2808" />
          <mxPoint x="-38" y="2808" />
        </Array>
      </mxGeometry>
    </mxCell>
    <mxCell id="edge2" edge="1" value="" parent="1" source="node3" target="node6" style="html=1;rounded=1;edgeStyle=orthogonalEdgeStyle;dashed=0;startArrow=none;endArrow=block;endSize=12;strokeColor=#000082;exitX=0.500;exitY=0.000;exitDx=0;exitDy=0;entryX=0.500;entryY=1.000;entryDx=0;entryDy=0;">
      <mxGeometry width="50" height="50" relative="1" as="geometry">
        <Array as="points" />
      </mxGeometry>
    </mxCell>
    <mxCell id="edge3" edge="1" value="" parent="1" source="node4" target="node14" style="html=1;rounded=1;edgeStyle=orthogonalEdgeStyle;dashed=0;startArrow=none;endArrow=block;endSize=12;strokeColor=#000082;exitX=0.500;exitY=0.000;exitDx=0;exitDy=0;entryX=0.500;entryY=1.000;entryDx=0;entryDy=0;">
      <mxGeometry width="50" height="50" relative="1" as="geometry">
        <Array as="points">
          <mxPoint x="182" y="2808" />
          <mxPoint x="-38" y="2808" />
        </Array>
      </mxGeometry>
    </mxCell>
    <mxCell id="edge5" edge="1" value="" parent="1" source="node13" target="node14" style="html=1;rounded=1;edgeStyle=orthogonalEdgeStyle;dashed=0;startArrow=none;endArrow=block;endSize=12;strokeColor=#000082;exitX=0.500;exitY=0.000;exitDx=0;exitDy=0;entryX=0.500;entryY=1.000;entryDx=0;entryDy=0;">
      <mxGeometry width="50" height="50" relative="1" as="geometry">
        <Array as="points">
          <mxPoint x="842" y="2808" />
          <mxPoint x="-38" y="2808" />
        </Array>
      </mxGeometry>
    </mxCell>
    <mxCell id="edge1" edge="1" value="" parent="1" source="node10" target="node14" style="html=1;rounded=1;edgeStyle=orthogonalEdgeStyle;dashed=0;startArrow=none;endArrow=block;endSize=12;strokeColor=#000082;exitX=0.500;exitY=0.000;exitDx=0;exitDy=0;entryX=0.500;entryY=1.000;entryDx=0;entryDy=0;">
      <mxGeometry width="50" height="50" relative="1" as="geometry">
        <Array as="points">
          <mxPoint x="622" y="2808" />
          <mxPoint x="-38" y="2808" />
        </Array>
      </mxGeometry>
    </mxCell>
  </root>
</mxGraphModel>